<svg width="501" height="105" viewBox="0 0 501 105" fill="none" xmlns="http://www.w3.org/2000/svg">
<g clip-path="url(#clip0_1364_646)">
<path fill-rule="evenodd" clip-rule="evenodd" d="M37.9536 73.1774L66.3702 57.2106C67.2233 56.7452 67.9353 56.0588 68.4313 55.2232C68.9273 54.3876 69.1891 53.4339 69.1891 52.4621C69.1891 51.4903 68.9273 50.5366 68.4313 49.701C67.9353 48.8654 67.2233 48.1784 66.3702 47.713L38.5655 32.0868C37.7295 31.4878 36.7457 31.1287 35.7204 31.0486C34.6951 30.9686 33.6674 31.1703 32.7486 31.6323C31.8298 32.0942 31.0548 32.7989 30.5076 33.6697C29.9604 34.5404 29.6617 35.5443 29.644 36.5726V68.344C29.6615 69.3101 29.9279 70.2551 30.4173 71.0883C30.9067 71.9214 31.6026 72.6145 32.438 73.1001C33.2733 73.5858 34.2198 73.8479 35.186 73.861C36.1522 73.8741 37.1054 73.6379 37.9536 73.1751V73.1774ZM42.775 25.3201L79.2464 45.8133C80.3813 46.4486 81.6601 46.7818 82.9607 46.7818C84.2613 46.7818 85.5401 46.4486 86.675 45.8133L86.925 45.6727C87.7787 45.2075 88.4911 44.5205 88.9876 43.6847C89.484 42.8488 89.746 41.8946 89.746 40.9224C89.746 39.9502 89.484 38.996 88.9876 38.1601C88.4911 37.3242 87.7787 36.6379 86.925 36.1727L38.5655 9.001C37.7287 8.40637 36.7457 8.0513 35.7221 7.97328C34.6985 7.89527 33.673 8.09769 32.7557 8.55864C31.8385 9.01959 31.0642 9.72175 30.5159 10.5897C29.9677 11.4576 29.6662 12.4581 29.644 13.4845V14.0105C29.639 14.2376 29.575 14.4598 29.4581 14.6546C29.3412 14.8494 29.1756 15.0101 28.9776 15.1214C28.7795 15.2327 28.5559 15.2903 28.3287 15.2888C28.1016 15.2873 27.8787 15.2271 27.6822 15.1132L22.406 12.1487C22.1711 12.0202 21.9831 11.8207 21.8693 11.5784C21.7555 11.3362 21.7216 11.064 21.7726 10.8012C22.2754 8.63665 23.2897 6.62377 24.7306 4.93199C26.1715 3.24021 27.9969 1.91894 30.0539 1.07806C32.1109 0.237171 34.3394 -0.0987627 36.5528 0.0991683C38.7661 0.297099 40.8999 1.02312 42.775 2.21564L90.9964 29.3129C93.0708 30.4474 94.8031 32.1175 96.0133 34.1486C97.2234 36.1798 97.8671 38.4976 97.8773 40.8619C97.8875 43.2262 97.2639 45.55 96.0713 47.5915C94.8788 49.633 93.1609 51.3179 91.0965 52.4702L33.6107 84.7677C32.4144 85.4283 31.4161 86.3966 30.7188 87.5718C30.0215 88.7471 29.6504 90.0871 29.644 91.4537C29.6658 92.4802 29.9669 93.4814 30.515 94.3497C31.0631 95.2179 31.8374 95.92 32.7547 96.3813C33.672 96.8425 34.6977 97.0451 35.7215 96.9672C36.7453 96.8893 37.7285 96.5342 38.5655 95.9395L86.925 68.7655C87.7781 68.3001 88.49 67.6137 88.986 66.778C89.482 65.9424 89.7438 64.9887 89.7438 64.0169C89.7438 63.0452 89.482 62.0909 88.986 61.2552C88.49 60.4196 87.7781 59.7332 86.925 59.2678L86.4488 59.001C86.2511 58.8927 86.0863 58.7334 85.9714 58.5395C85.8565 58.3455 85.7959 58.1243 85.7959 57.8989C85.7959 57.6735 85.8565 57.4522 85.9714 57.2583C86.0863 57.0644 86.2511 56.9045 86.4488 56.7962L91.7179 53.8368C91.9552 53.7027 92.2279 53.6443 92.4993 53.6694C92.7708 53.6945 93.0282 53.8021 93.2369 53.9775C94.865 55.368 96.1307 57.1332 96.9253 59.1213C97.7199 61.1094 98.0196 63.2609 97.7985 65.3905C97.5774 67.5201 96.8421 69.5639 95.6559 71.3464C94.4698 73.1288 92.8683 74.596 90.9893 75.6223L42.7679 102.72C40.7151 104.039 38.3497 104.79 35.9124 104.897C33.4751 105.004 31.0529 104.464 28.8922 103.331C26.7315 102.198 24.9095 100.513 23.6117 98.4472C22.3139 96.3813 21.5865 94.0088 21.5036 91.5705V26.4321C21.4977 25.228 21.1709 24.0475 20.557 23.0118C19.943 21.976 19.0641 21.1227 18.0107 20.5396C17.1737 19.9448 16.1906 19.5892 15.1668 19.5113C14.143 19.4333 13.1173 19.636 12.2 20.0972C11.2826 20.5584 10.5083 21.2605 9.96025 22.1288C9.41219 22.997 9.11106 23.9982 9.08926 25.0248V79.8965C9.11064 80.9233 9.41148 81.9245 9.95938 82.7931C10.5073 83.6617 11.2815 84.3649 12.1989 84.8264C13.1163 85.2879 14.1422 85.4902 15.1662 85.4124C16.1902 85.3346 17.1736 84.9795 18.0107 84.3847C18.2071 84.2709 18.4298 84.2101 18.6567 84.2085C18.8837 84.2069 19.1071 84.2644 19.3051 84.3754C19.5031 84.4863 19.6687 84.6471 19.7857 84.8415C19.9028 85.036 19.9672 85.2575 19.9726 85.4844V91.3868C19.9702 91.6574 19.8824 91.9202 19.7216 92.1379C19.5608 92.3555 19.3353 92.517 19.0774 92.5988C17.036 93.3016 14.8571 93.5113 12.7192 93.2103C10.5812 92.9094 8.54492 92.1062 6.77683 90.8672C5.00874 89.6281 3.55914 87.9883 2.54659 86.0814C1.53403 84.1746 0.987311 82.0552 0.951172 79.8965V25.0248C1.00379 22.6436 1.67338 20.3168 2.89449 18.2719C4.11559 16.2271 5.84648 14.534 7.91783 13.3583C9.98917 12.1827 12.3301 11.5651 14.7118 11.5651C17.0936 11.565 19.4345 12.1827 21.5059 13.3583C28.598 17.3377 35.6877 21.3211 42.775 25.3084V25.3201Z" fill="#5e14f7"/>
<path d="M37.1106 62.7183C37.1092 63.1008 37.2134 63.4758 37.4116 63.803C37.6098 64.1301 37.8944 64.3962 38.2341 64.572C38.5738 64.7478 38.9553 64.8265 39.3368 64.7993C39.7183 64.7721 40.085 64.6401 40.3963 64.418L58.2225 54.1251C58.5385 53.943 58.801 53.6811 58.9834 53.3654C59.1659 53.0496 59.262 52.6913 59.262 52.3266C59.262 51.9619 59.1659 51.6036 58.9834 51.2878C58.801 50.9721 58.5385 50.7096 58.2225 50.5275L40.3963 40.2347C40.0848 40.0134 39.7183 39.8824 39.3371 39.8557C38.9559 39.8289 38.5748 39.9079 38.2354 40.0835C37.896 40.2591 37.6114 40.5248 37.413 40.8514C37.2146 41.178 37.11 41.5528 37.1106 41.9349V62.7183Z" fill="#18F040"/>
<path d="M159.225 29.109L151.794 33.5114C150.876 31.6386 149.513 30.0193 147.825 28.7947C146.291 27.897 144.53 27.4605 142.754 27.5376C140.45 27.4545 138.197 28.2233 136.425 29.6971C135.625 30.3369 134.982 31.1516 134.546 32.0786C134.109 33.0056 133.891 34.0203 133.908 35.0447C133.908 38.0066 136.11 40.3915 140.513 42.1995L146.568 44.678C150.736 46.1447 154.459 48.6556 157.38 51.9709C159.709 54.9862 160.918 58.7174 160.799 62.5257C160.878 65.0935 160.422 67.6497 159.461 70.0322C158.5 72.4148 157.054 74.5716 155.216 76.3661C153.379 78.1754 151.196 79.5954 148.798 80.5413C146.4 81.4872 143.835 81.9394 141.258 81.8709C136.468 82.0441 131.795 80.3681 128.206 77.1899C124.625 73.6727 122.387 69.0143 121.877 64.0209L131.163 61.9757C131.276 64.5801 132.033 67.1159 133.366 69.3566C134.27 70.4882 135.399 71.4197 136.682 72.0922C137.965 72.7647 139.373 73.1635 140.818 73.2633C142.263 73.3631 143.713 73.1618 145.076 72.6721C146.439 72.1824 147.686 71.415 148.737 70.4185C149.676 69.4599 150.411 68.321 150.898 67.0704C151.384 65.8198 151.612 64.4835 151.568 63.1423C151.58 62.042 151.414 60.947 151.077 59.8995C150.743 58.9063 150.223 57.9859 149.544 57.1876C148.764 56.2868 147.857 55.5047 146.851 54.8661C145.602 54.0672 144.287 53.3765 142.92 52.8018L137.063 50.3637C128.754 46.8542 124.599 41.7169 124.599 34.9518C124.565 32.7749 125.018 30.6178 125.924 28.6381C126.83 26.6585 128.167 24.9061 129.837 23.509C133.433 20.3761 138.082 18.7192 142.849 18.8709C149.835 18.8804 155.293 22.2931 159.225 29.109Z" fill="#FFFFFF"/>
<path d="M170.154 14.3633H178.999V45.6585C181.803 42.9662 185.53 41.4475 189.418 41.4133C191.348 41.3287 193.274 41.6607 195.065 42.3866C196.856 43.1126 198.47 44.2155 199.796 45.6204C201.998 48.0601 203.099 51.949 203.099 57.2871V80.7561H194.254V58.1109C194.45 55.7701 193.876 53.4292 192.62 51.4442C191.968 50.7163 191.155 50.1507 190.245 49.7923C189.336 49.4339 188.356 49.2927 187.382 49.3799C186.139 49.2525 184.884 49.4501 183.74 49.9534C182.596 50.4568 181.602 51.2486 180.856 52.2514C179.377 55.361 178.74 58.8042 179.008 62.2371V80.7538H170.163L170.154 14.3633Z" fill="#FFFFFF"/>
<path d="M212.968 26.5493C212.987 25.0364 213.599 23.5913 214.672 22.5253C215.746 21.4592 217.195 20.8573 218.709 20.8493C219.469 20.8373 220.224 20.9808 220.927 21.2711C221.63 21.5614 222.266 21.9923 222.797 22.5374C223.344 23.0578 223.777 23.6865 224.068 24.3833C224.359 25.0802 224.502 25.83 224.487 26.585C224.499 27.3458 224.356 28.101 224.065 28.8041C223.774 29.5072 223.343 30.1433 222.797 30.6731C222.276 31.2204 221.648 31.6533 220.951 31.9444C220.254 32.2354 219.504 32.3782 218.749 32.3636C217.987 32.3643 217.232 32.2139 216.527 31.9212C215.823 31.6285 215.184 31.1992 214.647 30.6582C214.11 30.1172 213.685 29.4752 213.397 28.7691C213.11 28.0631 212.964 27.307 212.97 26.5446L212.968 26.5493ZM223.151 42.4708V80.7636H214.304V42.4708H223.151Z" fill="#FFFFFF"/>
<path d="M243.201 102.204H234.356V43.0754H243.201V47.2421C244.719 45.6057 246.555 44.2968 248.597 43.3961C250.639 42.4953 252.843 42.0215 255.075 42.004C257.541 41.9435 259.989 42.4346 262.24 43.4414C264.492 44.4481 266.49 45.9451 268.089 47.8231C271.612 51.8474 273.468 57.0637 273.277 62.4088C273.449 67.6732 271.608 72.8051 268.127 76.7588C266.576 78.5239 264.671 79.9436 262.536 80.9258C260.401 81.908 258.084 82.4308 255.734 82.4605C253.384 82.4901 251.055 82.0258 248.896 81.0978C246.737 80.1697 244.797 78.7985 243.201 77.073V102.204ZM264.237 62.4564C264.378 59.2024 263.314 56.0107 261.249 53.4921C260.323 52.374 259.158 51.4789 257.839 50.8734C256.52 50.2679 255.081 49.9674 253.63 49.9945C252.145 49.9424 250.667 50.2185 249.301 50.8028C247.935 51.3872 246.715 52.2656 245.727 53.3754C243.631 55.847 242.549 59.0212 242.699 62.2588C242.575 65.4932 243.654 68.6586 245.727 71.1445C246.698 72.2654 247.908 73.1545 249.268 73.7466C250.627 74.3386 252.102 74.6186 253.585 74.5659C255.028 74.5981 256.461 74.3036 257.775 73.7046C259.088 73.1055 260.25 72.2174 261.173 71.1064C263.251 68.7087 264.345 65.6132 264.235 62.4421L264.237 62.4564Z" fill="#FFFFFF"/>
<path d="M282.632 42.8081H291.478V46.2295C292.715 44.8318 294.176 43.6491 295.801 42.7295C297.222 42.0444 298.785 41.7073 300.361 41.7462C302.96 41.8268 305.489 42.6154 307.673 44.0271L303.625 52.1224C302.22 51.0151 300.499 50.3824 298.711 50.3152C293.889 50.3152 291.478 53.9589 291.478 61.2462V81.1009H282.632V42.8081Z" fill="#FFFFFF"/>
<path d="M310.235 61.6849C310.193 59.0497 310.7 56.4346 311.722 54.0054C312.744 51.5761 314.26 49.3857 316.173 47.573C320.078 43.8316 325.28 41.7464 330.688 41.7539C336.096 41.7615 341.292 43.8612 345.187 47.6134C348.97 51.4556 351.088 56.6337 351.081 62.026C351.074 67.4184 348.943 72.5908 345.149 76.423C343.214 78.3162 340.92 79.803 338.401 80.7958C335.883 81.7886 333.191 82.2674 330.485 82.2039C327.803 82.2689 325.136 81.7785 322.653 80.7636C320.169 79.7487 317.922 78.2311 316.054 76.3063C314.137 74.3952 312.632 72.1121 311.632 69.5975C310.631 67.0829 310.155 64.3901 310.235 61.6849ZM319.282 61.842C319.101 65.1503 320.199 68.4016 322.349 70.923C324.567 73.0835 327.539 74.2959 330.636 74.3035C333.732 74.311 336.71 73.1132 338.939 70.9634C340.953 68.423 342.049 65.2765 342.049 62.0349C342.049 58.7932 340.953 55.6467 338.939 53.1063C336.738 50.9393 333.772 49.7247 330.683 49.7247C327.594 49.7247 324.629 50.9393 322.427 53.1063C320.276 55.4945 319.145 58.6303 319.277 61.842H319.282Z" fill="#FFFFFF"/>
<path d="M390.242 44.4657V56.2204C388.74 54.2286 386.904 52.5127 384.816 51.149C383.133 50.1764 381.214 49.687 379.27 49.7347C377.719 49.695 376.176 49.9864 374.746 50.5895C373.315 51.1926 372.03 52.0935 370.975 53.2323C368.759 55.6034 367.572 58.7552 367.673 61.999C367.547 65.2493 368.689 68.4212 370.856 70.8466C371.898 71.9782 373.171 72.8727 374.588 73.4696C376.006 74.0665 377.535 74.3518 379.073 74.3061C381.034 74.3465 382.972 73.8729 384.694 72.9323C386.825 71.5319 388.7 69.7763 390.237 67.7418V79.4085C386.925 81.197 383.227 82.1546 379.463 82.199C376.729 82.2759 374.008 81.808 371.456 80.8225C368.905 79.8369 366.576 78.3534 364.604 76.4585C362.66 74.6172 361.124 72.3888 360.094 69.9171C359.065 67.4454 358.565 64.7853 358.627 62.1085C358.575 59.4082 359.086 56.7266 360.128 54.2352C361.171 51.7437 362.722 49.4972 364.682 47.6395C366.637 45.7101 368.96 44.1937 371.513 43.1805C374.065 42.1673 376.796 41.6781 379.542 41.7418C383.281 41.735 386.961 42.6719 390.242 44.4657Z" fill="#FFFFFF"/>
<path d="M409.744 14.3633V54.8585L422.204 42.4776H434.077L417.446 58.5585L435.304 80.7704H423.823L411.166 64.6133L409.754 66.0276V80.7704H400.906V14.368L409.744 14.3633Z" fill="#FFFFFF"/>
<path d="M474.573 64.0445H447.116C447.203 66.835 448.293 69.5007 450.185 71.554C451.093 72.4676 452.18 73.1836 453.378 73.6572C454.576 74.1308 455.859 74.3519 457.146 74.3064C459.089 74.3822 461.004 73.8303 462.608 72.7326C464.54 71.0825 466.176 69.1155 467.446 66.9159L474.916 71.0826C473.878 72.8896 472.653 74.5822 471.261 76.1326C470.051 77.4717 468.662 78.6367 467.132 79.5945C465.658 80.5 464.051 81.17 462.37 81.5802C460.553 82.0127 458.69 82.2246 456.823 82.2112C454.27 82.3218 451.723 81.8881 449.351 80.939C446.978 79.99 444.835 78.5472 443.063 76.7064C439.476 72.6726 437.612 67.3935 437.873 62.0017C437.629 56.6409 439.427 51.3871 442.904 47.2993C446.466 43.7748 451.267 41.7851 456.278 41.7562C461.289 41.7273 466.113 43.6614 469.715 47.1445C473.166 51.2853 474.909 56.5854 474.589 61.9659L474.573 64.0445ZM465.489 56.8112C465.147 54.7339 464.043 52.8585 462.393 51.5504C460.744 50.2423 458.666 49.5951 456.565 49.735C455.535 49.7276 454.512 49.8943 453.537 50.2278C452.605 50.5496 451.734 51.0278 450.963 51.6421C450.182 52.2667 449.511 53.0176 448.977 53.8636C448.406 54.7741 447.981 55.7688 447.718 56.8112H465.489Z" fill="#FFFFFF"/>
<path d="M494.07 50.9706V81.0087H485.22V50.9706H481.449V42.7134H485.22V28.6777H494.07V42.7134H500.951V50.9706H494.07Z" fill="#FFFFFF"/>
</g>
<defs>
<clipPath id="clip0_1364_646">
<rect width="500" height="104.762" fill="white" transform="translate(0.951172 0.0820312)"/>
</clipPath>
</defs>
</svg>
